<?xml version="1.0" encoding="UTF-8" standalone="no"?>
<!-- Created with Inkscape (http://www.inkscape.org/) -->

<svg
   width="48pt"
   height="48pt"
   viewBox="0 0 16.933334 16.933333"
   version="1.1"
   id="svg979"
   inkscape:version="1.1 (c68e22c387, 2021-05-23)"
   sodipodi:docname="28 - Honeycomb.svg"
   inkscape:export-filename="E:\TR Design Studio Creative\Project Design\TR Creative Design\Icon Design\Project Hiring\Icon Icons\006 - Ecology\Send\4 - Filled Line\28 - Honeycomb.png"
   inkscape:export-xdpi="768"
   inkscape:export-ydpi="768"
   xmlns:inkscape="http://www.inkscape.org/namespaces/inkscape"
   xmlns:sodipodi="http://sodipodi.sourceforge.net/DTD/sodipodi-0.dtd"
   xmlns="http://www.w3.org/2000/svg"
   xmlns:svg="http://www.w3.org/2000/svg"
   xmlns:rdf="http://www.w3.org/1999/02/22-rdf-syntax-ns#"
   xmlns:cc="http://creativecommons.org/ns#"
   xmlns:dc="http://purl.org/dc/elements/1.1/">
  <defs
     id="defs973" />
  <sodipodi:namedview
     id="base"
     pagecolor="#ffffff"
     bordercolor="#666666"
     borderopacity="1.0"
     inkscape:pageopacity="0.0"
     inkscape:pageshadow="2"
     inkscape:zoom="5.4358834"
     inkscape:cx="32.377442"
     inkscape:cy="36.608585"
     inkscape:document-units="pt"
     inkscape:current-layer="layer1"
     showgrid="false"
     units="pt"
     inkscape:window-width="1366"
     inkscape:window-height="716"
     inkscape:window-x="-8"
     inkscape:window-y="-8"
     inkscape:window-maximized="1"
     inkscape:pagecheckerboard="0"
     inkscape:snap-bbox="true"
     inkscape:snap-nodes="false"
     inkscape:bbox-nodes="true"
     showguides="false"
     inkscape:snap-global="true">
    <inkscape:grid
       type="xygrid"
       id="grid1526" />
    <sodipodi:guide
       position="0.97013909,15.963209"
       orientation="56.666615,0"
       id="guide1528"
       inkscape:locked="false" />
    <sodipodi:guide
       position="0.97013909,0.97016731"
       orientation="0,56.666667"
       id="guide1530"
       inkscape:locked="false" />
    <sodipodi:guide
       position="15.963195,0.97016731"
       orientation="-56.666615,0"
       id="guide1532"
       inkscape:locked="false" />
    <sodipodi:guide
       position="15.963195,15.963209"
       orientation="0,-56.666667"
       id="guide1534"
       inkscape:locked="false" />
  </sodipodi:namedview>
  <metadata
     id="metadata976">
    <rdf:RDF>
      <cc:Work
         rdf:about="">
        <dc:format>image/svg+xml</dc:format>
        <dc:type
           rdf:resource="http://purl.org/dc/dcmitype/StillImage" />
      </cc:Work>
    </rdf:RDF>
  </metadata>
  <g
     inkscape:label="Layer 1"
     inkscape:groupmode="layer"
     id="layer1"
     transform="translate(0,-280.06668)">
    <g
       id="g3372"
       transform="matrix(1.259146,0,0,1.259146,-0.60381055,-76.123747)"
       style="stroke-width:0.794189">
      <g
         id="g70236"
         style="display:inline;stroke-width:0.794189"
         transform="translate(-21.159528,-67.082684)">
        <g
           id="g70220"
           style="stroke-width:0.794189">
          <path
             style="color:#000000;fill:#65342d;stroke-width:0.794189;stroke-linecap:round;stroke-linejoin:round;-inkscape-stroke:none;paint-order:markers fill stroke"
             d="m 27.570312,351.79492 a 0.26460996,0.26460996 0 0 0 -0.257812,0.32813 l 0.265625,1.05859 a 0.26460996,0.26460996 0 0 0 0.255859,0.20117 h 1.058594 a 0.26460996,0.26460996 0 0 0 0.255859,-0.20117 l 0.265625,-1.05859 a 0.26460996,0.26460996 0 0 0 -0.257812,-0.32813 z"
             id="path60284" />
          <path
             style="color:#000000;fill:#9a605c;stroke-width:0.794189;stroke-linecap:round;stroke-linejoin:round;-inkscape-stroke:none;paint-order:markers fill stroke"
             d="m 23.601562,350.73633 c -0.144559,0 -0.318928,0.0346 -0.519531,0.0879 -0.100301,0.0266 -0.199126,0.0554 -0.291015,0.10156 -0.04594,0.0231 -0.09057,0.0497 -0.138672,0.0957 -0.0481,0.046 -0.109374,0.12816 -0.109375,0.24414 v 0.5293 c 1e-6,0.11599 0.06127,0.1981 0.109375,0.24414 0.0481,0.046 0.09273,0.0726 0.138672,0.0957 0.09189,0.0462 0.190714,0.0769 0.291015,0.10351 0.200603,0.0533 0.374972,0.0859 0.519531,0.0859 h 7.482422 l 0.119141,0.36133 c 0.08566,0.25697 0.32873,0.43164 0.599609,0.43164 h 0.529297 c 0.30297,0 0.527439,-0.31024 0.431641,-0.59766 l -0.06445,-0.19531 H 33.125 c 0.14456,0 0.318928,-0.0326 0.519531,-0.0859 0.100302,-0.0266 0.199126,-0.0573 0.291016,-0.10351 0.04595,-0.0231 0.09057,-0.0497 0.138672,-0.0957 0.0481,-0.046 0.109375,-0.12815 0.109375,-0.24414 v -0.5293 c 0,-0.11598 -0.06127,-0.19809 -0.109375,-0.24414 -0.0481,-0.046 -0.09273,-0.0726 -0.138672,-0.0957 -0.09189,-0.0462 -0.190714,-0.0749 -0.291016,-0.10156 -0.200603,-0.0533 -0.374971,-0.0879 -0.519531,-0.0879 z"
             id="path60344" />
          <path
             id="path62326"
             style="color:#000000;fill:#65332d;fill-opacity:1;stroke-width:0.794189;stroke-linecap:round;stroke-linejoin:round;-inkscape-stroke:none;paint-order:markers fill stroke"
             d="m 22.55261,351.35278 c 0.200604,-0.0533 0.375306,-0.0879 0.519865,-0.0879 h 9.523451 c 0.36228,0.0188 0.666357,0.10945 0.949296,0.2853 0.0481,0.046 0.109038,0.12793 0.109038,0.24391 v 0.44132 c 0.09693,-0.026 0.192222,-0.0566 0.281119,-0.10129 0.04595,-0.0231 0.09091,-0.0496 0.13901,-0.0956 0.0481,-0.046 0.109037,-0.12792 0.109037,-0.24391 v -0.52968 c 0,-0.11598 -0.06093,-0.19787 -0.109037,-0.24392 -0.270965,-0.20744 -0.63335,-0.2853 -0.949296,-0.2853 l -9.523433,5.5e-4 c -0.47294,0.0395 -1.05885,0.14503 -1.05885,0.52912 z"
             sodipodi:nodetypes="csccscssssccccc" />
        </g>
        <g
           id="g70215"
           style="stroke-width:0.794189">
          <path
             style="color:#000000;fill:#febe40;stroke-width:0.794189;stroke-linecap:round;stroke-linejoin:round;-inkscape-stroke:none;paint-order:markers fill stroke"
             d="m 26.642819,352.85395 c -0.508451,0 -0.926043,0.41759 -0.926043,0.92604 0,0.14219 0.03281,0.27711 0.09095,0.39791 -0.489335,0.0221 -0.883667,0.43004 -0.883667,0.92449 0,0.15955 0.04106,0.3098 0.113171,0.44132 -0.371518,0.12056 -0.642855,0.47069 -0.642855,0.88056 0,0.15987 0.04131,0.31141 0.113688,0.44339 -0.371518,0.12056 -0.642854,0.4712 -0.642854,0.88108 0,0.40974 0.271015,0.76041 0.642338,0.88109 -0.0719,0.13137 -0.113172,0.28201 -0.113172,0.44131 0,0.40988 0.271337,0.76001 0.642855,0.88057 -0.07209,0.13141 -0.113171,0.28179 -0.113171,0.44131 0,0.49446 0.394324,0.90436 0.883667,0.92656 -0.05814,0.1208 -0.09095,0.25573 -0.09095,0.39791 0,0.50845 0.417592,0.92553 0.926043,0.92553 h 3.441131 c 0.508453,0 0.926042,-0.41708 0.926042,-0.92553 0,-0.14195 -0.03288,-0.27713 -0.09095,-0.39791 0.489159,-0.0224 0.883666,-0.43223 0.883666,-0.92656 0,-0.15952 -0.04095,-0.30968 -0.112654,-0.44131 0.371041,-0.12084 0.641821,-0.47103 0.641821,-0.88057 0,-0.15942 -0.04031,-0.31036 -0.112139,-0.44183 0.371007,-0.12086 0.641821,-0.47105 0.641821,-0.88057 0,-0.40988 -0.271335,-0.76052 -0.642855,-0.88108 0.07238,-0.13198 0.113173,-0.28352 0.113173,-0.44339 0,-0.40971 -0.271058,-0.75986 -0.64234,-0.88056 0.0721,-0.13152 0.113173,-0.28178 0.113173,-0.44132 0,-0.49432 -0.394518,-0.90219 -0.883666,-0.92449 0.05813,-0.1208 0.09095,-0.25572 0.09095,-0.39791 0,-0.50845 -0.417589,-0.92604 -0.926042,-0.92604 z"
             id="path56266" />
          <path
             style="color:#000000;fill:#ec7523;stroke-width:0.794189;stroke-linecap:round;stroke-linejoin:round;-inkscape-stroke:none;paint-order:markers fill stroke"
             d="m 27.873047,356.29297 c -0.603734,0 -1.097656,0.49392 -1.097656,1.09765 v 0.71485 c 0,0.60373 0.493922,1.09766 1.097656,1.09765 h 0.980469 c 0.603734,0 1.097656,-0.49392 1.097656,-1.09765 v -0.71485 c 0,-0.60373 -0.493922,-1.09765 -1.097656,-1.09765 z"
             id="path60400" />
          <path
             id="path64598"
             style="color:#000000;fill:#e3482c;fill-opacity:1;stroke-width:0.794189;stroke-linecap:round;stroke-linejoin:round;-inkscape-stroke:none;paint-order:markers fill stroke"
             d="m 27.873234,356.29302 c -0.43792,0 -0.81796,0.25989 -0.993738,0.63304 0.14129,-0.0666 0.298757,-0.10387 0.464571,-0.10387 h 0.980302 c 0.603734,0 1.097607,0.49387 1.097607,1.09761 v 0.71468 c 0,0.16581 -0.03731,0.32328 -0.103869,0.46457 0.373151,-0.17578 0.633036,-0.55582 0.633036,-0.99374 v -0.71468 c 0,-0.60373 -0.493873,-1.09761 -1.097607,-1.09761 z" />
        </g>
      </g>
      <path
         id="path17990"
         style="color:#000000;display:inline;fill:#000000;stroke-width:0.794189;stroke-linecap:round;stroke-linejoin:round;-inkscape-stroke:none;paint-order:markers fill stroke"
         d="m 2.442132,283.65358 c -0.144559,0 -0.319262,0.0345 -0.519865,0.0878 -0.100301,0.0266 -0.199049,0.0557 -0.290938,0.10181 -0.04594,0.0231 -0.09039,0.0496 -0.138493,0.0956 -0.0481,0.046 -0.109553,0.12793 -0.109554,0.24391 v 0.52968 c 1e-6,0.11599 0.06145,0.19788 0.109554,0.24392 0.0481,0.046 0.09255,0.0725 0.138493,0.0956 0.09189,0.0462 0.190637,0.0773 0.290938,0.10387 0.200603,0.0533 0.375306,0.0858 0.519865,0.0858 h 3.761527 l 0.13281,0.52968 H 5.483291 c -0.508452,0 -0.926043,0.4176 -0.926043,0.92605 0,0.14218 0.03281,0.2771 0.09095,0.3979 -0.489335,0.0221 -0.883667,0.43005 -0.883667,0.9245 0,0.15954 0.04106,0.30979 0.113171,0.44131 -0.371518,0.12056 -0.642855,0.4707 -0.642855,0.88057 0,0.15987 0.04131,0.3114 0.113688,0.44338 -0.371517,0.12056 -0.642854,0.47121 -0.642854,0.88109 0,0.40974 0.271015,0.7604 0.642338,0.88108 -0.0719,0.13137 -0.113172,0.28202 -0.113172,0.44132 0,0.40988 0.271337,0.76 0.642855,0.88056 -0.07211,0.13152 -0.113171,0.28178 -0.113171,0.44132 0,0.49446 0.394324,0.90436 0.883667,0.92656 -0.05814,0.1208 -0.09095,0.25573 -0.09095,0.39791 0,0.50844 0.417591,0.92552 0.926043,0.92552 h 3.441131 c 0.508455,0 0.926042,-0.41708 0.926042,-0.92552 0,-0.14218 -0.03281,-0.27711 -0.09095,-0.39791 0.489156,-0.0224 0.883666,-0.43223 0.883666,-0.92656 0,-0.15954 -0.04107,-0.3098 -0.113173,-0.44132 0.371282,-0.1207 0.64234,-0.47085 0.64234,-0.88056 0,-0.1593 -0.04076,-0.30995 -0.112655,-0.44132 0.371322,-0.12068 0.642337,-0.47134 0.642337,-0.88108 0,-0.40988 -0.271335,-0.76053 -0.642855,-0.88109 0.07238,-0.13198 0.113173,-0.28351 0.113173,-0.44338 0,-0.40971 -0.271058,-0.75987 -0.64234,-0.88057 0.0721,-0.13152 0.113173,-0.28177 0.113173,-0.44131 0,-0.49433 -0.39452,-0.9022 -0.883666,-0.9245 0.05813,-0.1208 0.09095,-0.25572 0.09095,-0.3979 0,-0.50845 -0.417587,-0.92605 -0.926042,-0.92605 H 8.071247 l 0.132807,-0.52968 h 1.720308 l 0.119372,0.36122 c 0.08566,0.25697 0.328567,0.4315 0.599448,0.4315 h 0.529167 c 0.302969,0 0.527812,-0.30996 0.432014,-0.59738 l -0.0646,-0.19534 h 0.425816 c 0.144557,0 0.318743,-0.0325 0.519348,-0.0858 0.1003,-0.0266 0.199046,-0.0577 0.290938,-0.10387 0.04595,-0.0231 0.09091,-0.0496 0.139009,-0.0956 0.0481,-0.046 0.109038,-0.12793 0.109038,-0.24392 v -0.52968 c 0,-0.11598 -0.06093,-0.19786 -0.109038,-0.24391 -0.0481,-0.046 -0.09307,-0.0725 -0.139009,-0.0956 -0.09189,-0.0462 -0.190638,-0.0752 -0.290938,-0.10181 -0.200605,-0.0533 -0.374791,-0.0878 -0.519348,-0.0878 z m 0,0.52916 h 9.523451 c 0.0016,0 0.224731,0.0262 0.384471,0.0687 0.06151,0.0163 0.105743,0.0347 0.144695,0.0506 v 0.29301 c -0.03895,0.0159 -0.08324,0.0323 -0.144695,0.0486 -0.15974,0.0424 -0.382908,0.0687 -0.384471,0.0687 h -0.793234 c -0.179814,8e-4 -0.306036,0.17706 -0.249598,0.34779 l 0.148312,0.447 h -0.427881 c -0.04513,0 -0.08339,-0.0275 -0.09767,-0.0703 l -0.179835,-0.54312 c -0.03588,-0.10865 -0.137239,-0.18168 -0.251664,-0.18139 H 2.442132 c -0.0016,0 -0.225249,-0.0262 -0.38499,-0.0687 -0.06145,-0.0163 -0.105229,-0.0327 -0.144177,-0.0486 v -0.29301 c 0.03895,-0.0159 0.08267,-0.0342 0.144177,-0.0506 z m 4.30723,1.05885 h 0.910024 l -0.132292,0.52968 H 6.882172 Z m -1.270206,1.85208 c -0.222398,-0.002 -0.392741,-0.1733 -0.392741,-0.39635 0,-0.22445 0.172429,-0.39636 0.396876,-0.39636 h 3.441131 c 0.224446,0 0.396359,0.17191 0.396359,0.39636 0,0.22445 -0.171913,0.39635 -0.396359,0.39635 -0.146121,-5.2e-4 -0.265044,0.11743 -0.265615,0.26355 -5.29e-4,0.14693 0.118681,0.26619 0.265615,0.26562 0.248957,-0.008 0.526047,0 0.793234,0 0.224452,0 0.396359,0.17242 0.396359,0.39688 0,0.22444 -0.171913,0.39635 -0.396359,0.39635 H 4.690057 c -0.224445,0 -0.396359,-0.17191 -0.396359,-0.39635 0,-0.22446 0.171909,-0.39688 0.396359,-0.39688 1.076762,-10e-4 2.193875,-5.3e-4 3.306768,-5.3e-4 0.146126,5.3e-4 0.265046,-0.11742 0.265615,-0.26355 5.29e-4,-0.14693 -0.118684,-0.26619 -0.265615,-0.26561 z m -2.244308,-0.26406 c -0.07042,10e-6 -0.137933,0.0281 -0.187585,0.078 l -0.142627,0.14263 -0.144177,-0.14263 c -0.103203,-0.10262 -0.269902,-0.10262 -0.373104,0 -0.102613,0.1032 -0.102613,0.2699 0,0.3731 l 0.07596,0.078 -0.07596,0.076 c -0.103991,0.10344 -0.103991,0.27173 0,0.37517 0.103202,0.10261 0.269901,0.10261 0.373104,0 l 0.144177,-0.14263 0.142627,0.14263 c 0.103439,0.10399 0.271732,0.10399 0.375171,0 0.10399,-0.10344 0.10399,-0.27173 0,-0.37517 l -0.07803,-0.076 0.07803,-0.078 c 0.102613,-0.1032 0.102613,-0.2699 0,-0.3731 -0.04965,-0.0499 -0.117164,-0.078 -0.187586,-0.078 z m 8.467183,0.52761 c -0.07035,-1.2e-4 -0.137848,0.0278 -0.187584,0.0775 -0.103989,0.10344 -0.103989,0.27173 0,0.37517 l 0.07803,0.078 -0.07803,0.0765 c -0.103645,0.10338 -0.103645,0.27128 0,0.37466 0.103381,0.10364 0.271272,0.10364 0.374653,0 l 0.143144,-0.14315 0.144177,0.14315 c 0.103203,0.10261 0.269902,0.10261 0.373105,0 0.103645,-0.10338 0.103645,-0.27128 0,-0.37466 l -0.07648,-0.0765 0.07648,-0.078 c 0.103989,-0.10344 0.103989,-0.27173 0,-0.37517 -0.103203,-0.10262 -0.269902,-0.10262 -0.373105,0 l -0.144177,0.14417 -0.143144,-0.14417 c -0.04961,-0.0496 -0.116901,-0.0775 -0.187069,-0.0775 z m -1.455208,1.58807 c 0.224446,0 0.396359,0.17192 0.396359,0.39636 0,0.22287 -0.16958,0.39601 -0.391708,0.39842 -0.0016,-1.9e-4 -0.0031,-2.6e-4 -0.0047,-5.3e-4 H 9.584799 c -0.145521,2.7e-4 -0.263498,0.11803 -0.264067,0.26355 -5.29e-4,0.14633 0.117739,0.26534 0.264067,0.26562 0.39278,10e-4 0.826839,-8e-4 1.191141,10e-4 0.224444,0 0.396359,0.1719 0.396359,0.39635 0,0.22445 -0.171915,0.39636 -0.396359,0.39636 -0.659683,0.002 -1.318122,-5.3e-4 -1.985407,-5.3e-4 5.3e-4,-0.013 0.0011,-0.0262 0.0011,-0.0393 v -0.71469 c 0,-0.60373 -0.493874,-1.0976 -1.097608,-1.0976 h -0.9803 c -0.395949,0 -0.744794,0.21263 -0.93793,0.52916 H 4.150573 c -0.219288,-0.005 -0.386023,-0.17696 -0.386023,-0.39791 0,-0.22444 0.171915,-0.39635 0.396358,-0.39635 2.288951,0.003 4.008943,0 6.085912,0 z m -3.533116,0.79422 h 0.980299 c 0.319731,0 0.568442,0.24872 0.568442,0.56844 v 0.71468 c 0,0.31973 -0.248711,0.56844 -0.568442,0.56844 H 6.713707 c -0.319731,0 -0.568442,-0.24871 -0.568442,-0.56844 v -0.71468 c 0,-0.31972 0.248711,-0.56844 0.568442,-0.56844 z m -2.812749,0.52916 c 0.555936,0.002 1.143822,0 1.715657,0 -5.3e-4,0.013 -5.3e-4,0.0262 -5.3e-4,0.0393 v 0.71468 c 0,0.0131 5.6e-5,0.0263 5.3e-4,0.0393 -0.668882,0.004 -1.329677,5.3e-4 -1.984892,5.3e-4 -0.224446,0 -0.396875,-0.17191 -0.396875,-0.39636 0,-0.22445 0.172429,-0.39636 0.396875,-0.39636 0.08836,-0.002 0.179514,-0.001 0.269235,-0.001 z m 6.345857,1.32293 c 0.224451,0 0.396359,0.17243 0.396359,0.39688 0,0.22444 -0.171913,0.39636 -0.396359,0.39636 -1.833764,0.002 -3.6865,10e-4 -5.52937,10e-4 -0.0089,-8e-4 -0.0182,-10e-4 -0.02739,-10e-4 -0.167395,0.004 -0.350299,0 -0.529167,0 -0.224443,0 -0.396358,-0.17192 -0.396358,-0.39636 0,-0.22445 0.17191,-0.39688 0.396358,-0.39688 l 1.614371,-5.3e-4 c 0.193059,0.31688 0.542245,0.52918 0.938446,0.52917 h 0.980299 c 0.396201,0 0.744871,-0.2123 0.93793,-0.52917 z m 1.455216,0.79271 c -0.07042,10e-6 -0.137932,0.0281 -0.187584,0.078 -0.103645,0.10338 -0.103645,0.27127 0,0.37465 l 0.07803,0.0765 -0.07803,0.078 c -0.103989,0.10344 -0.103989,0.27174 0,0.37518 0.103381,0.10364 0.271272,0.10364 0.374653,0 l 0.143144,-0.14418 0.144177,0.14418 c 0.103203,0.10261 0.269902,0.10261 0.373105,0 0.103989,-0.10344 0.103989,-0.27174 0,-0.37518 l -0.07648,-0.078 0.07648,-0.0765 c 0.103645,-0.10338 0.103645,-0.27127 0,-0.37465 -0.103203,-0.10262 -0.269902,-0.10262 -0.373105,0 l -0.144177,0.14418 -0.143144,-0.14418 c -0.04953,-0.0498 -0.116827,-0.0779 -0.187069,-0.078 z m -2.777609,1.85416 c 0.224446,0 0.396359,0.17191 0.396359,0.39636 0,0.22445 -0.171913,0.39635 -0.396359,0.39635 H 5.483291 c -0.224447,0 -0.396876,-0.1719 -0.396876,-0.39635 0,-0.22445 0.172429,-0.39636 0.396876,-0.39636 0.146934,5.3e-4 0.266192,-0.11869 0.265615,-0.26562 -2.64e-4,-0.14633 -0.119287,-0.26463 -0.265615,-0.26407 -0.248734,0.008 -0.525545,0 -0.793234,0 -0.22444,0 -0.396359,-0.17397 -0.396359,-0.39842 0,-0.22111 0.16699,-0.39084 0.38654,-0.39584 l 5.051891,-10e-6 c 0.217236,0.007 0.381889,0.17631 0.381889,0.39584 0,0.22445 -0.171918,0.39842 -0.396359,0.39842 -1.014452,-5.3e-4 -2.028476,-5.3e-4 -3.043227,-5.3e-4 -0.14532,5.3e-4 -0.262985,0.11823 -0.263552,0.26355 -5.29e-4,0.14613 0.117425,0.26505 0.263552,0.26562 z m -6.747907,-0.53021 c -0.07042,1e-5 -0.137933,0.0281 -0.187586,0.078 -0.102613,0.1032 -0.102613,0.2699 0,0.3731 l 0.07803,0.078 -0.07803,0.078 c -0.102613,0.1032 -0.102613,0.2699 0,0.3731 0.103439,0.10399 0.271733,0.10399 0.375171,0 l 0.143144,-0.14366 0.143661,0.14366 c 0.103439,0.10399 0.271732,0.10399 0.37517,0 0.102272,-0.10314 0.102272,-0.26945 0,-0.37259 l -0.07803,-0.0785 0.07803,-0.078 c 0.102614,-0.1032 0.102614,-0.2699 0,-0.3731 -0.103438,-0.10399 -0.271731,-0.10399 -0.37517,0 L 2.507761,293.92993 2.3641,293.78627 c -0.04965,-0.0499 -0.117164,-0.078 -0.187585,-0.078 z"
         sodipodi:nodetypes="sccssscscsccsscscscscscscsssscscscscscscssccccssccscsssscscsscsccccscccscccscccccccccccsssscccssccsccsccccccccccccccccccsccccccccccccccccccccscccsccsccssssccsccsssssssssccssccsccccscccssccsscccccccccccccccccccccssssccccsccsccscccscccccccccccccccc" />
    </g>
  </g>
</svg>
