<?xml version="1.0" encoding="UTF-8" standalone="no"?>
<!-- Created with Inkscape (http://www.inkscape.org/) -->

<svg
   xmlns:dc="http://purl.org/dc/elements/1.1/"
   xmlns:cc="http://creativecommons.org/ns#"
   xmlns:rdf="http://www.w3.org/1999/02/22-rdf-syntax-ns#"
   xmlns:svg="http://www.w3.org/2000/svg"
   xmlns="http://www.w3.org/2000/svg"
   xmlns:sodipodi="http://sodipodi.sourceforge.net/DTD/sodipodi-0.dtd"
   xmlns:inkscape="http://www.inkscape.org/namespaces/inkscape"
   width="48pt"
   height="48pt"
   viewBox="0 0 16.933334 16.933333"
   version="1.1"
   id="svg979"
   inkscape:version="0.92.4 (5da689c313, 2019-01-14)"
   sodipodi:docname="7 - Honeycomb.svg"
   inkscape:export-filename="E:\TR Design Studio Creative\Project Design\TR Creative Design\Icon Design\Project Hiring\Icon Icons\Project - 001\001 - Agriculture And Farming\Filled Line\Export\7 - Honeycomb.png"
   inkscape:export-xdpi="768"
   inkscape:export-ydpi="768">
  <defs
     id="defs973" />
  <sodipodi:namedview
     id="base"
     pagecolor="#ffffff"
     bordercolor="#666666"
     borderopacity="1.0"
     inkscape:pageopacity="0.0"
     inkscape:pageshadow="2"
     inkscape:zoom="6.0435533"
     inkscape:cx="32"
     inkscape:cy="32"
     inkscape:document-units="pt"
     inkscape:current-layer="layer1"
     showgrid="false"
     units="pt"
     inkscape:window-width="1366"
     inkscape:window-height="716"
     inkscape:window-x="-8"
     inkscape:window-y="-8"
     inkscape:window-maximized="1"
     inkscape:snap-bbox="true"
     inkscape:bbox-nodes="true"
     inkscape:snap-nodes="false"
     showguides="false">
    <inkscape:grid
       type="xygrid"
       id="grid1526" />
    <sodipodi:guide
       position="0.97013909,15.963209"
       orientation="56.666615,0"
       id="guide1528"
       inkscape:locked="false" />
    <sodipodi:guide
       position="0.97013909,0.97016731"
       orientation="0,56.666667"
       id="guide1530"
       inkscape:locked="false" />
    <sodipodi:guide
       position="15.963195,0.97016731"
       orientation="-56.666615,0"
       id="guide1532"
       inkscape:locked="false" />
    <sodipodi:guide
       position="15.963195,15.963209"
       orientation="0,-56.666667"
       id="guide1534"
       inkscape:locked="false" />
  </sodipodi:namedview>
  <metadata
     id="metadata976">
    <rdf:RDF>
      <cc:Work
         rdf:about="">
        <dc:format>image/svg+xml</dc:format>
        <dc:type
           rdf:resource="http://purl.org/dc/dcmitype/StillImage" />
        <dc:title></dc:title>
      </cc:Work>
    </rdf:RDF>
  </metadata>
  <g
     inkscape:label="Layer 1"
     inkscape:groupmode="layer"
     id="layer1"
     transform="translate(0,-280.06668)">
    <g
       id="g2619"
       transform="matrix(1.2314664,0,0,1.2314664,0.32581857,-70.149597)"
       style="stroke-width:0.81204003">
      <g
         inkscape:export-ydpi="826.16193"
         inkscape:export-xdpi="826.16193"
         id="g1774"
         style="display:inline;stroke-width:0.81204003"
         transform="translate(22.27281,22.628259)">
        <g
           id="g1904"
           inkscape:label="10"
           style="stroke-width:0.81204003">
          <path
             inkscape:connector-curvature="0"
             id="path1674"
             d="m -17.923828,272.3418 a 0.26460996,0.26460996 0 0 0 -0.21875,0.13476 c 0,0 -0.142163,0.25284 -0.285156,0.54688 -0.0715,0.14702 -0.144609,0.30352 -0.201172,0.45117 -0.05656,0.14765 -0.103516,0.27118 -0.103516,0.42773 0,0.44982 0.370487,0.82032 0.820313,0.82032 0.449825,0 0.820312,-0.3705 0.820312,-0.82032 0,-0.15655 -0.04891,-0.28008 -0.105469,-0.42773 -0.05656,-0.14765 -0.127722,-0.30415 -0.199218,-0.45117 -0.142993,-0.29404 -0.285157,-0.54688 -0.285157,-0.54688 a 0.26460996,0.26460996 0 0 0 -0.242187,-0.13476 z"
             style="color:#000000;font-style:normal;font-letiant:normal;font-weight:normal;font-stretch:normal;font-size:medium;line-height:normal;font-family:sans-serif;font-letiant-ligatures:normal;font-letiant-position:normal;font-letiant-caps:normal;font-letiant-numeric:normal;font-letiant-alternates:normal;font-feature-settings:normal;text-indent:0;text-align:start;text-decoration:none;text-decoration-line:none;text-decoration-style:solid;text-decoration-color:#000000;letter-spacing:normal;word-spacing:normal;text-transform:none;writing-mode:lr-tb;direction:ltr;text-orientation:mixed;dominant-baseline:auto;baseline-shift:baseline;text-anchor:start;white-space:normal;shape-padding:0;clip-rule:nonzero;display:inline;overflow:visible;visibility:visible;opacity:1;isolation:auto;mix-blend-mode:normal;color-interpolation:sRGB;color-interpolation-filters:linearRGB;solid-color:#000000;solid-opacity:1;vector-effect:none;fill:#ffb74d;fill-opacity:1;fill-rule:nonzero;stroke:none;stroke-width:0.42970479;stroke-linecap:round;stroke-linejoin:round;stroke-miterlimit:4;stroke-dasharray:none;stroke-dashoffset:0;stroke-opacity:1;color-rendering:auto;image-rendering:auto;shape-rendering:auto;text-rendering:auto;enable-background:accumulate" />
        </g>
        <g
           id="g1890"
           inkscape:label="9"
           style="stroke-width:0.81204003">
          <path
             inkscape:connector-curvature="0"
             id="path1617"
             d="m -11.291016,262.55078 a 0.26460996,0.26460996 0 0 0 -0.138672,0.0352 l -1.455078,0.84179 a 0.26460996,0.26460996 0 0 0 -0.132812,0.22852 v 1.52734 l -1.322266,0.76368 a 0.26460996,0.26460996 0 0 0 -0.132812,0.22851 v 1.68164 a 0.26460996,0.26460996 0 0 0 0.132812,0.22852 l 1.322266,0.76367 v 3.7168 c -3e-6,0.54334 0.444948,0.98828 0.988281,0.98828 h 0.0078 c 0.543332,0 0.988281,-0.44494 0.988281,-0.98828 v -1.63282 c 0.145198,0.084 0.280269,0.18946 0.458984,0.18946 h 0.0078 c 0.543337,0 0.988281,-0.44495 0.988281,-0.98828 -8.1e-6,-2.1596 2.69e-5,-4.31892 0,-6.47852 a 0.26460996,0.26460996 0 0 0 -0.1328125,-0.22852 l -1.4550785,-0.84179 a 0.26460996,0.26460996 0 0 0 -0.125,-0.0352 z"
             style="color:#000000;font-style:normal;font-letiant:normal;font-weight:normal;font-stretch:normal;font-size:medium;line-height:normal;font-family:sans-serif;font-letiant-ligatures:normal;font-letiant-position:normal;font-letiant-caps:normal;font-letiant-numeric:normal;font-letiant-alternates:normal;font-feature-settings:normal;text-indent:0;text-align:start;text-decoration:none;text-decoration-line:none;text-decoration-style:solid;text-decoration-color:#000000;letter-spacing:normal;word-spacing:normal;text-transform:none;writing-mode:lr-tb;direction:ltr;text-orientation:mixed;dominant-baseline:auto;baseline-shift:baseline;text-anchor:start;white-space:normal;shape-padding:0;clip-rule:nonzero;display:inline;overflow:visible;visibility:visible;opacity:1;isolation:auto;mix-blend-mode:normal;color-interpolation:sRGB;color-interpolation-filters:linearRGB;solid-color:#000000;solid-opacity:1;vector-effect:none;fill:#ffb74d;fill-opacity:1;fill-rule:nonzero;stroke:none;stroke-width:0.42970479;stroke-linecap:round;stroke-linejoin:round;stroke-miterlimit:4;stroke-dasharray:none;stroke-dashoffset:0;stroke-opacity:1;color-rendering:auto;image-rendering:auto;shape-rendering:auto;text-rendering:auto;enable-background:accumulate" />
        </g>
        <g
           id="g1895"
           inkscape:label="8"
           style="stroke-width:0.81204003">
          <path
             inkscape:connector-curvature="0"
             id="path1664"
             d="m -14.201172,267.5918 a 0.26460996,0.26460996 0 0 0 -0.138672,0.0352 l -1.455078,0.8418 a 0.26460996,0.26460996 0 0 0 -0.132812,0.22852 v 1.67968 a 0.26460996,0.26460996 0 0 0 0.132812,0.23047 l 1.419922,0.81836 a 0.26460996,0.26460996 0 0 0 0.08203,0.043 0.26460996,0.26460996 0 0 0 0.02149,0.008 0.26460996,0.26460996 0 0 0 0.0039,0 0.26460996,0.26460996 0 0 0 0.02148,0.006 0.26460996,0.26460996 0 0 0 0.03125,0.002 0.26460996,0.26460996 0 0 0 0.04687,-0.004 0.26460996,0.26460996 0 0 0 0.02734,-0.006 0.26460996,0.26460996 0 0 0 0.0039,0 0.26460996,0.26460996 0 0 0 0.0918,-0.0449 0.26460996,0.26460996 0 0 0 0.002,-0.002 l 1.421875,-0.82031 a 0.26460996,0.26460996 0 0 0 0.132813,-0.23047 v -1.67968 a 0.26460996,0.26460996 0 0 0 -0.132813,-0.22852 l -1.455078,-0.8418 a 0.26460996,0.26460996 0 0 0 -0.125,-0.0352 z"
             style="color:#000000;font-style:normal;font-letiant:normal;font-weight:normal;font-stretch:normal;font-size:medium;line-height:normal;font-family:sans-serif;font-letiant-ligatures:normal;font-letiant-position:normal;font-letiant-caps:normal;font-letiant-numeric:normal;font-letiant-alternates:normal;font-feature-settings:normal;text-indent:0;text-align:start;text-decoration:none;text-decoration-line:none;text-decoration-style:solid;text-decoration-color:#000000;letter-spacing:normal;word-spacing:normal;text-transform:none;writing-mode:lr-tb;direction:ltr;text-orientation:mixed;dominant-baseline:auto;baseline-shift:baseline;text-anchor:start;white-space:normal;shape-padding:0;clip-rule:nonzero;display:inline;overflow:visible;visibility:visible;opacity:1;isolation:auto;mix-blend-mode:normal;color-interpolation:sRGB;color-interpolation-filters:linearRGB;solid-color:#000000;solid-opacity:1;vector-effect:none;fill:#ffb74d;fill-opacity:1;fill-rule:nonzero;stroke:none;stroke-width:0.42970479;stroke-linecap:round;stroke-linejoin:round;stroke-miterlimit:4;stroke-dasharray:none;stroke-dashoffset:0;stroke-opacity:1;color-rendering:auto;image-rendering:auto;shape-rendering:auto;text-rendering:auto;enable-background:accumulate" />
        </g>
        <g
           id="g1900"
           inkscape:label="7"
           style="stroke-width:0.81204003">
          <path
             inkscape:connector-curvature="0"
             id="path1629"
             d="m -17.138672,267.59245 a 0.26460996,0.26460996 0 0 0 -0.111328,0.0352 l -1.457031,0.83984 a 0.26460996,0.26460996 0 0 0 -0.13086,0.23047 v 1.72461 c 0,0.54509 0.447093,0.99219 0.992188,0.99219 0.180527,0 0.316543,-0.10797 0.462891,-0.19336 v 0.12695 c 0,0.54509 0.447092,0.99219 0.992187,0.99219 0.545095,0 0.992187,-0.4471 0.992187,-0.99219 v -2.65039 a 0.26460996,0.26460996 0 0 0 -0.132812,-0.23047 l -1.455078,-0.83984 a 0.26460996,0.26460996 0 0 0 -0.152344,-0.0352 z"
             style="color:#000000;font-style:normal;font-letiant:normal;font-weight:normal;font-stretch:normal;font-size:medium;line-height:normal;font-family:sans-serif;font-letiant-ligatures:normal;font-letiant-position:normal;font-letiant-caps:normal;font-letiant-numeric:normal;font-letiant-alternates:normal;font-feature-settings:normal;text-indent:0;text-align:start;text-decoration:none;text-decoration-line:none;text-decoration-style:solid;text-decoration-color:#000000;letter-spacing:normal;word-spacing:normal;text-transform:none;writing-mode:lr-tb;direction:ltr;text-orientation:mixed;dominant-baseline:auto;baseline-shift:baseline;text-anchor:start;white-space:normal;shape-padding:0;clip-rule:nonzero;display:inline;overflow:visible;visibility:visible;opacity:1;isolation:auto;mix-blend-mode:normal;color-interpolation:sRGB;color-interpolation-filters:linearRGB;solid-color:#000000;solid-opacity:1;vector-effect:none;fill:#ffb74d;fill-opacity:1;fill-rule:nonzero;stroke:none;stroke-width:0.42970479;stroke-linecap:round;stroke-linejoin:round;stroke-miterlimit:4;stroke-dasharray:none;stroke-dashoffset:0;stroke-opacity:1;color-rendering:auto;image-rendering:auto;shape-rendering:auto;text-rendering:auto;enable-background:accumulate" />
        </g>
        <g
           id="g1824"
           inkscape:label="6"
           style="stroke-width:0.81204003">
          <path
             inkscape:connector-curvature="0"
             id="path1649"
             d="m -20.048828,267.59245 a 0.26460996,0.26460996 0 0 0 -0.113281,0.0352 l -1.455079,0.83984 a 0.26460996,0.26460996 0 0 0 -0.130859,0.23047 v 1.67969 a 0.26460996,0.26460996 0 0 0 0.130859,0.22851 l 1.417969,0.81836 a 0.26460996,0.26460996 0 0 0 0.111328,0.0527 0.26460996,0.26460996 0 0 0 0.02148,0.004 0.26460996,0.26460996 0 0 0 0.0039,0 0.26460996,0.26460996 0 0 0 0.02148,0.002 0.26460996,0.26460996 0 0 0 0.0059,0 0.26460996,0.26460996 0 0 0 0.04687,-0.002 0.26460996,0.26460996 0 0 0 0.130859,-0.0566 l 1.416016,-0.81836 a 0.26460996,0.26460996 0 0 0 0.132812,-0.22851 v -1.67969 a 0.26460996,0.26460996 0 0 0 -0.132812,-0.23047 l -1.455078,-0.83984 a 0.26460996,0.26460996 0 0 0 -0.152344,-0.0352 z"
             style="color:#000000;font-style:normal;font-letiant:normal;font-weight:normal;font-stretch:normal;font-size:medium;line-height:normal;font-family:sans-serif;font-letiant-ligatures:normal;font-letiant-position:normal;font-letiant-caps:normal;font-letiant-numeric:normal;font-letiant-alternates:normal;font-feature-settings:normal;text-indent:0;text-align:start;text-decoration:none;text-decoration-line:none;text-decoration-style:solid;text-decoration-color:#000000;letter-spacing:normal;word-spacing:normal;text-transform:none;writing-mode:lr-tb;direction:ltr;text-orientation:mixed;dominant-baseline:auto;baseline-shift:baseline;text-anchor:start;white-space:normal;shape-padding:0;clip-rule:nonzero;display:inline;overflow:visible;visibility:visible;opacity:1;isolation:auto;mix-blend-mode:normal;color-interpolation:sRGB;color-interpolation-filters:linearRGB;solid-color:#000000;solid-opacity:1;vector-effect:none;fill:#ffb74d;fill-opacity:1;fill-rule:nonzero;stroke:none;stroke-width:0.42970479;stroke-linecap:round;stroke-linejoin:round;stroke-miterlimit:4;stroke-dasharray:none;stroke-dashoffset:0;stroke-opacity:1;color-rendering:auto;image-rendering:auto;shape-rendering:auto;text-rendering:auto;enable-background:accumulate" />
        </g>
        <g
           id="g1780"
           inkscape:label="5"
           style="stroke-width:0.81204003">
          <path
             inkscape:connector-curvature="0"
             id="path1600"
             d="m -15.683594,265.07227 a 0.26460996,0.26460996 0 0 0 -0.111328,0.0351 l -1.455078,0.8399 a 0.26460996,0.26460996 0 0 0 -0.132812,0.22851 v 1.68164 a 0.26460996,0.26460996 0 0 0 0.132812,0.22852 l 1.40625,0.81054 0.0078,0.006 a 0.26460996,0.26460996 0 0 0 0.08789,0.0469 0.26460996,0.26460996 0 0 0 0.04687,0.0117 0.26460996,0.26460996 0 0 0 0.0039,0 0.26460996,0.26460996 0 0 0 0.02149,0.002 0.26460996,0.26460996 0 0 0 0.0059,0 0.26460996,0.26460996 0 0 0 0.02539,0 0.26460996,0.26460996 0 0 0 0.152343,-0.0606 l 1.416016,-0.8164 a 0.26460996,0.26460996 0 0 0 0.132813,-0.22852 v -1.68164 a 0.26460996,0.26460996 0 0 0 -0.132813,-0.22851 l -1.455078,-0.83985 a 0.26460996,0.26460996 0 0 0 -0.152344,-0.0351 z"
             style="color:#000000;font-style:normal;font-letiant:normal;font-weight:normal;font-stretch:normal;font-size:medium;line-height:normal;font-family:sans-serif;font-letiant-ligatures:normal;font-letiant-position:normal;font-letiant-caps:normal;font-letiant-numeric:normal;font-letiant-alternates:normal;font-feature-settings:normal;text-indent:0;text-align:start;text-decoration:none;text-decoration-line:none;text-decoration-style:solid;text-decoration-color:#000000;letter-spacing:normal;word-spacing:normal;text-transform:none;writing-mode:lr-tb;direction:ltr;text-orientation:mixed;dominant-baseline:auto;baseline-shift:baseline;text-anchor:start;white-space:normal;shape-padding:0;clip-rule:nonzero;display:inline;overflow:visible;visibility:visible;opacity:1;isolation:auto;mix-blend-mode:normal;color-interpolation:sRGB;color-interpolation-filters:linearRGB;solid-color:#000000;solid-opacity:1;vector-effect:none;fill:#ffb74d;fill-opacity:1;fill-rule:nonzero;stroke:none;stroke-width:0.42970479;stroke-linecap:round;stroke-linejoin:round;stroke-miterlimit:4;stroke-dasharray:none;stroke-dashoffset:0;stroke-opacity:1;color-rendering:auto;image-rendering:auto;shape-rendering:auto;text-rendering:auto;enable-background:accumulate" />
        </g>
        <g
           id="g1817"
           inkscape:label="4"
           style="stroke-width:0.81204003">
          <path
             inkscape:connector-curvature="0"
             id="path1592"
             d="m -18.59375,265.07227 a 0.26460996,0.26460996 0 0 0 -0.113281,0.0351 l -1.455078,0.83985 a 0.26460996,0.26460996 0 0 0 -0.13086,0.22851 v 1.68164 a 0.26460996,0.26460996 0 0 0 0.13086,0.22852 l 1.423828,0.82226 a 0.26460996,0.26460996 0 0 0 0.0059,0.004 0.26460996,0.26460996 0 0 0 0.121094,0.0488 0.26460996,0.26460996 0 0 0 0.0039,0 0.26460996,0.26460996 0 0 0 0.02148,0.002 0.26460996,0.26460996 0 0 0 0.0059,0 0.26460996,0.26460996 0 0 0 0.02539,0 0.26460996,0.26460996 0 0 0 0.152344,-0.0586 l 1.416016,-0.81836 a 0.26460996,0.26460996 0 0 0 0.132812,-0.22852 v -1.68164 a 0.26460996,0.26460996 0 0 0 -0.132812,-0.22851 l -1.455078,-0.83985 a 0.26460996,0.26460996 0 0 0 -0.152344,-0.0351 z"
             style="color:#000000;font-style:normal;font-letiant:normal;font-weight:normal;font-stretch:normal;font-size:medium;line-height:normal;font-family:sans-serif;font-letiant-ligatures:normal;font-letiant-position:normal;font-letiant-caps:normal;font-letiant-numeric:normal;font-letiant-alternates:normal;font-feature-settings:normal;text-indent:0;text-align:start;text-decoration:none;text-decoration-line:none;text-decoration-style:solid;text-decoration-color:#000000;letter-spacing:normal;word-spacing:normal;text-transform:none;writing-mode:lr-tb;direction:ltr;text-orientation:mixed;dominant-baseline:auto;baseline-shift:baseline;text-anchor:start;white-space:normal;shape-padding:0;clip-rule:nonzero;display:inline;overflow:visible;visibility:visible;opacity:1;isolation:auto;mix-blend-mode:normal;color-interpolation:sRGB;color-interpolation-filters:linearRGB;solid-color:#000000;solid-opacity:1;vector-effect:none;fill:#ffb74d;fill-opacity:1;fill-rule:nonzero;stroke:none;stroke-width:0.42970479;stroke-linecap:round;stroke-linejoin:round;stroke-miterlimit:4;stroke-dasharray:none;stroke-dashoffset:0;stroke-opacity:1;color-rendering:auto;image-rendering:auto;shape-rendering:auto;text-rendering:auto;enable-background:accumulate" />
        </g>
        <g
           id="g1796"
           transform="translate(-5.2916667,5.2916663)"
           inkscape:label="3"
           style="stroke-width:0.81204003">
          <path
             inkscape:connector-curvature="0"
             id="path1584"
             d="m -8.9095053,257.25911 a 0.26460996,0.26460996 0 0 0 -0.138672,0.0352 l -1.4550777,0.84179 a 0.26460996,0.26460996 0 0 0 -0.132812,0.22852 v 1.67969 a 0.26460996,0.26460996 0 0 0 0.132812,0.23047 l 1.4199217,0.81836 a 0.26460996,0.26460996 0 0 0 0.08203,0.043 0.26460996,0.26460996 0 0 0 0.02149,0.008 0.26460996,0.26460996 0 0 0 0.0039,0 0.26460996,0.26460996 0 0 0 0.02148,0.006 0.26460996,0.26460996 0 0 0 0.03125,0.002 0.26460996,0.26460996 0 0 0 0.04687,-0.004 0.26460996,0.26460996 0 0 0 0.02734,-0.006 0.26460996,0.26460996 0 0 0 0.0039,0 0.26460996,0.26460996 0 0 0 0.0918,-0.0449 0.26460996,0.26460996 0 0 0 0.002,-0.002 l 1.421875,-0.82031 a 0.26460996,0.26460996 0 0 0 0.132813,-0.23047 v -1.67969 a 0.26460996,0.26460996 0 0 0 -0.132813,-0.22852 l -1.455078,-0.84179 a 0.26460996,0.26460996 0 0 0 -0.125,-0.0352 z"
             style="color:#000000;font-style:normal;font-letiant:normal;font-weight:normal;font-stretch:normal;font-size:medium;line-height:normal;font-family:sans-serif;font-letiant-ligatures:normal;font-letiant-position:normal;font-letiant-caps:normal;font-letiant-numeric:normal;font-letiant-alternates:normal;font-feature-settings:normal;text-indent:0;text-align:start;text-decoration:none;text-decoration-line:none;text-decoration-style:solid;text-decoration-color:#000000;letter-spacing:normal;word-spacing:normal;text-transform:none;writing-mode:lr-tb;direction:ltr;text-orientation:mixed;dominant-baseline:auto;baseline-shift:baseline;text-anchor:start;white-space:normal;shape-padding:0;clip-rule:nonzero;display:inline;overflow:visible;visibility:visible;opacity:1;isolation:auto;mix-blend-mode:normal;color-interpolation:sRGB;color-interpolation-filters:linearRGB;solid-color:#000000;solid-opacity:1;vector-effect:none;fill:#ffb74d;fill-opacity:1;fill-rule:nonzero;stroke:none;stroke-width:0.42970479;stroke-linecap:round;stroke-linejoin:round;stroke-miterlimit:4;stroke-dasharray:none;stroke-dashoffset:0;stroke-opacity:1;color-rendering:auto;image-rendering:auto;shape-rendering:auto;text-rendering:auto;enable-background:accumulate" />
        </g>
        <g
           id="g1785"
           transform="translate(0,5.2916663)"
           inkscape:label="2"
           style="stroke-width:0.81204003">
          <path
             inkscape:connector-curvature="0"
             id="path1573"
             d="m -17.113281,257.25911 a 0.26460996,0.26460996 0 0 0 -0.136719,0.0352 l -1.457031,0.84179 a 0.26460996,0.26460996 0 0 0 -0.13086,0.22852 v 1.67969 a 0.26460996,0.26460996 0 0 0 0.13086,0.23047 l 1.421875,0.81836 a 0.26460996,0.26460996 0 0 0 0.128906,0.0566 0.26460996,0.26460996 0 0 0 0.03125,0.002 0.26460996,0.26460996 0 0 0 0.04687,-0.004 0.26460996,0.26460996 0 0 0 0.123047,-0.0508 0.26460996,0.26460996 0 0 0 0.002,-0.002 l 1.421875,-0.82031 a 0.26460996,0.26460996 0 0 0 0.132812,-0.23047 v -1.67969 a 0.26460996,0.26460996 0 0 0 -0.132812,-0.22852 l -1.455078,-0.84179 a 0.26460996,0.26460996 0 0 0 -0.126953,-0.0352 z"
             style="color:#000000;font-style:normal;font-letiant:normal;font-weight:normal;font-stretch:normal;font-size:medium;line-height:normal;font-family:sans-serif;font-letiant-ligatures:normal;font-letiant-position:normal;font-letiant-caps:normal;font-letiant-numeric:normal;font-letiant-alternates:normal;font-feature-settings:normal;text-indent:0;text-align:start;text-decoration:none;text-decoration-line:none;text-decoration-style:solid;text-decoration-color:#000000;letter-spacing:normal;word-spacing:normal;text-transform:none;writing-mode:lr-tb;direction:ltr;text-orientation:mixed;dominant-baseline:auto;baseline-shift:baseline;text-anchor:start;white-space:normal;shape-padding:0;clip-rule:nonzero;display:inline;overflow:visible;visibility:visible;opacity:1;isolation:auto;mix-blend-mode:normal;color-interpolation:sRGB;color-interpolation-filters:linearRGB;solid-color:#000000;solid-opacity:1;vector-effect:none;fill:#ffb74d;fill-opacity:1;fill-rule:nonzero;stroke:none;stroke-width:0.42970479;stroke-linecap:round;stroke-linejoin:round;stroke-miterlimit:4;stroke-dasharray:none;stroke-dashoffset:0;stroke-opacity:1;color-rendering:auto;image-rendering:auto;shape-rendering:auto;text-rendering:auto;enable-background:accumulate" />
        </g>
        <g
           id="g1882"
           inkscape:label="1"
           style="stroke-width:0.81204003">
          <path
             inkscape:connector-curvature="0"
             id="path1559"
             d="m -20.022786,262.55077 a 0.26460996,0.26460996 0 0 0 -0.138672,0.0352 l -1.455078,0.84179 a 0.26460996,0.26460996 0 0 0 -0.132813,0.22852 v 1.67969 a 0.26460996,0.26460996 0 0 0 0.132813,0.23047 l 1.421875,0.82031 a 0.26460996,0.26460996 0 0 0 0.132812,0.0547 0.26460996,0.26460996 0 0 0 0.02539,0.002 0.26460996,0.26460996 0 0 0 0.04883,-0.004 0.26460996,0.26460996 0 0 0 0.0039,0 0.26460996,0.26460996 0 0 0 0.04687,-0.0137 0.26460996,0.26460996 0 0 0 0.07227,-0.0371 0.26460996,0.26460996 0 0 0 0.002,-0.002 l 1.421875,-0.82031 a 0.26460996,0.26460996 0 0 0 0.13086,-0.23047 v -1.67969 a 0.26460996,0.26460996 0 0 0 -0.13086,-0.22852 l -1.455078,-0.84179 a 0.26460996,0.26460996 0 0 0 -0.126953,-0.0352 z"
             style="color:#000000;font-style:normal;font-letiant:normal;font-weight:normal;font-stretch:normal;font-size:medium;line-height:normal;font-family:sans-serif;font-letiant-ligatures:normal;font-letiant-position:normal;font-letiant-caps:normal;font-letiant-numeric:normal;font-letiant-alternates:normal;font-feature-settings:normal;text-indent:0;text-align:start;text-decoration:none;text-decoration-line:none;text-decoration-style:solid;text-decoration-color:#000000;letter-spacing:normal;word-spacing:normal;text-transform:none;writing-mode:lr-tb;direction:ltr;text-orientation:mixed;dominant-baseline:auto;baseline-shift:baseline;text-anchor:start;white-space:normal;shape-padding:0;clip-rule:nonzero;display:inline;overflow:visible;visibility:visible;opacity:1;isolation:auto;mix-blend-mode:normal;color-interpolation:sRGB;color-interpolation-filters:linearRGB;solid-color:#000000;solid-opacity:1;vector-effect:none;fill:#ffb74d;fill-opacity:1;fill-rule:nonzero;stroke:none;stroke-width:0.42970479;stroke-linecap:round;stroke-linejoin:round;stroke-miterlimit:4;stroke-dasharray:none;stroke-dashoffset:0;stroke-opacity:1;color-rendering:auto;image-rendering:auto;shape-rendering:auto;text-rendering:auto;enable-background:accumulate" />
        </g>
      </g>
      <path
         inkscape:export-ydpi="826.16193"
         inkscape:export-xdpi="826.16193"
         sodipodi:nodetypes="ccccccccccccccscsssccccscsccccccccccccccccccccccccccccccccccccccccccccccccccccccccccccccccssccccccccccccccccccccccccssccccccscccccscccccccccccccccccccccccccccccccccsccccccccc"
         inkscape:connector-curvature="0"
         id="path1014"
         d="m 2.1140829,285.21565 -1.45520807,0.84181 c -0.08104,0.0475 -0.130799,0.13446 -0.13074101,0.22841 v 1.67948 c -7.9398e-4,0.0947 0.04906,0.18258 0.13074101,0.23048 l 1.32446707,0.76429 v 1.37201 l -1.32446707,0.76637 c -0.08104,0.0475 -0.130799,0.13446 -0.13074101,0.22841 v 1.67948 c -7.9398e-4,0.0947 0.04906,0.18258 0.13074101,0.23048 l 1.42213507,0.82062 c 0.115486,0.0667 0.212245,0.0685 0.33176,-5e-4 l 1.099675,-0.63407 c 0.148159,0.36251 0.5040231,0.62063 0.917773,0.62063 0.1677209,0 0.3240262,-0.0459 0.4630211,-0.12041 v 0.0558 c 0,0.54509 0.4470929,0.99219 0.992188,0.99219 0.5450949,0 0.992187,-0.4471 0.992187,-0.99219 v -0.51366 l 1.0237099,0.59015 c 0.1346552,0.0858 0.2378742,0.0571 0.3296971,0.004 0.3416001,-0.19875 0.6848001,-0.39574 1.0273242,-0.59325 v 1.72961 c 0,0.54334 0.4452368,0.98857 0.9924448,0.98857 0.547209,0 0.99193,-0.44523 0.99193,-0.98857 v -1.56269 c 0.138025,0.0736 0.292944,0.11937 0.459404,0.11937 0.599997,0 0.995806,-0.498 0.995806,-0.98805 v -6.47868 c -3.7e-4,-0.0944 -0.05097,-0.1814 -0.132808,-0.22841 l -1.455209,-0.84181 c -0.03797,-0.0218 -0.08076,-0.0339 -0.12454,-0.0351 -0.04869,-0.001 -0.09679,0.0109 -0.13901,0.0351 l -1.322917,0.76533 -1.3234329,-0.76533 c -0.08785,-0.0507 -0.1874181,-0.0439 -0.2635501,0 l -1.3229169,0.76533 -1.3234332,-0.76533 c -0.09276,-0.0536 -0.18108,-0.0479 -0.2640669,2e-5 l -1.3239501,0.76481 -1.3224,-0.76481 c -0.09182,-0.047 -0.18795,-0.0449 -0.265613,-3e-5 z m 0.13281,0.53484 1.1911419,0.68781 v 1.3746 l -1.1916589,0.68729 -1.1890751,-0.68729 v -1.3746 z m 2.9099002,0 1.1916579,0.68781 v 1.3746 c -0.396608,0.22926 -0.7933621,0.45827 -1.190108,0.68729 L 3.967718,287.8129 v -1.3746 z m 2.9104159,0 1.191142,0.68781 v 1.3746 c -0.396462,0.22921 -0.7930359,0.45824 -1.189591,0.68729 L 6.8776179,287.8129 v -1.3746 z m 2.911967,0 1.189592,0.68781 v 6.32623 c 0,0.25932 -0.203443,0.45889 -0.466644,0.45889 -0.263202,0 -0.459399,-0.19957 -0.459399,-0.45889 v -1.97094 c -0.0077,-0.34503 -0.521508,-0.34503 -0.529167,0 v 4.40232 c 0,0.25934 -0.199557,0.45888 -0.462763,0.45888 -0.263206,0 -0.4627619,-0.19954 -0.4627619,-0.45888 v -3.76463 c 0,-0.14631 0.006,-0.23507 -0.08837,-0.30592 -0.4420111,-0.25895 -0.9066339,-0.52609 -1.366842,-0.79272 v -1.37304 c 0.4652082,-0.26875 0.9346689,-0.5397 1.3332532,-0.7705 0.1013428,-0.0585 0.1219567,-0.17905 0.1219567,-0.27388 v -1.47692 z m -8.7379671,0.43563 c -0.263797,0.0106 -0.351072,0.35863 -0.123507,0.49248 l 0.550871,0.33383 c 0.302102,0.18349 0.577538,-0.26971 0.275435,-0.4532 l -0.550871,-0.33177 c -0.04528,-0.0289 -0.09826,-0.0433 -0.151928,-0.0413 z m 9.1307081,0.99787 c -0.147147,0.001 -0.264866,0.12263 -0.262,0.26975 v 1.05679 c 0,0.35312 0.529684,0.35312 0.529684,0 v -1.05679 c 0.0029,-0.14935 -0.118309,-0.27151 -0.267684,-0.26975 z m -7.6698161,1.08831 1.191142,0.6873 v 1.37304 l -1.190625,0.68885 c -0.3968181,-0.22942 -0.793553,-0.45898 -1.190108,-0.68885 v -1.37304 z m 2.9099,0 1.191659,0.6873 v 1.37304 l -1.191659,0.68936 -1.1890748,-0.68884 v -1.37408 z m -0.01343,0.44132 c -0.2625968,0.0119 -0.3491079,0.35791 -0.1229899,0.49196 l 0.5503539,0.33434 c 0.3021352,0.18259 0.5760202,-0.27061 0.2738851,-0.4532 l -0.548803,-0.33435 c -0.04571,-0.0281 -0.09888,-0.0416 -0.1524461,-0.0387 z m 4.7733511,0.58807 c -0.146122,10e-4 -0.263419,0.12105 -0.261999,0.26717 v 0.26562 c 0,0.35312 0.529683,0.35312 0.529683,0 v -0.26562 c 0.0015,-0.14835 -0.119339,-0.2689 -0.267684,-0.26717 z m -6.2135729,1.48984 1.190108,0.68626 c -3.41e-5,0.83405 0,1.66685 0,2.50114 0,0.26109 -0.20193,0.46302 -0.4630211,0.46302 -0.2610911,0 -0.4630211,-0.20193 -0.4630211,-0.46302 -0.00101,-0.60349 0.0019,-1.21189 -0.00101,-1.81333 0,-0.14139 -0.1293151,-0.24375 -0.2682002,-0.24133 -0.1411359,0.003 -0.255293,0.11573 -0.259416,0.25683 -0.00119,0.28905 -5.292e-4,0.5804 -5.292e-4,0.87024 0,0.26108 -0.20193,0.46302 -0.4630211,0.46302 -0.2610908,0 -0.4625038,-0.20194 -0.4625038,-0.46302 v -1.57148 z m -2.9119672,5.3e-4 1.191658,0.68833 v 1.37356 l -1.191141,0.68781 -1.1895921,-0.68782 v -1.37459 z m 5.8213502,0 1.190625,0.6873 v 1.37459 l -1.1890751,0.68782 -1.1916579,-0.68782 v -1.37459 c 0.396349,-0.22971 0.7930909,-0.45874 1.190108,-0.6873 z m -5.8347862,0.44079 c -0.267456,0.008 -0.355612,0.36233 -0.12299,0.49455 l 0.550871,0.33176 c 0.302156,0.18233 0.575524,-0.27087 0.273368,-0.4532 l -0.550354,-0.33176 c -0.04498,-0.0287 -0.09758,-0.0431 -0.150895,-0.0414 z m 5.8203171,0 c -0.2674559,0.008 -0.3556119,0.36233 -0.1229899,0.49455 l 0.5508699,0.33176 c 0.302156,0.18233 0.5755251,-0.27087 0.2733691,-0.4532 L 8.205708,291.2742 c -0.04542,-0.029 -0.09861,-0.0434 -0.152445,-0.0414 z m -3.7010671,3.73828 c -0.09126,0.004 -0.173896,0.0552 -0.218591,0.13487 0,0 -0.1422609,0.25322 -0.285254,0.54726 -0.158638,0.28403 -0.304374,0.59382 -0.304374,0.8785 0,0.44982 0.3702791,0.82062 0.8201049,0.82062 0.449825,0 0.8201052,-0.3708 0.8201052,-0.82062 0,-0.31914 -0.1773931,-0.60391 -0.3043741,-0.8785 C 4.7368199,295.35922 4.594559,295.106 4.594559,295.106 4.545699,295.0189 4.4519618,294.96675 4.3521959,294.97113 Z m 0.01188,0.83612 c 0.07789,0.14414 0.153932,0.33043 0.2206591,0.48628 0.1472859,0.30244 0.04557,0.52916 -0.2206591,0.52916 -0.290721,0 -0.3311149,-0.25671 -0.2227249,-0.52916 0.07657,-0.16864 0.1584349,-0.359 0.2227249,-0.48628 z"
         style="color:#000000;font-style:normal;font-letiant:normal;font-weight:normal;font-stretch:normal;font-size:medium;line-height:normal;font-family:sans-serif;font-letiant-ligatures:normal;font-letiant-position:normal;font-letiant-caps:normal;font-letiant-numeric:normal;font-letiant-alternates:normal;font-feature-settings:normal;text-indent:0;text-align:start;text-decoration:none;text-decoration-line:none;text-decoration-style:solid;text-decoration-color:#000000;letter-spacing:normal;word-spacing:normal;text-transform:none;writing-mode:lr-tb;direction:ltr;text-orientation:mixed;dominant-baseline:auto;baseline-shift:baseline;text-anchor:start;white-space:normal;shape-padding:0;clip-rule:nonzero;display:inline;overflow:visible;visibility:visible;opacity:1;isolation:auto;mix-blend-mode:normal;color-interpolation:sRGB;color-interpolation-filters:linearRGB;solid-color:#000000;solid-opacity:1;vector-effect:none;fill:#1a1a1a;fill-opacity:1;fill-rule:nonzero;stroke:none;stroke-width:0.42970479;stroke-linecap:round;stroke-linejoin:round;stroke-miterlimit:4;stroke-dasharray:none;stroke-dashoffset:0;stroke-opacity:1;color-rendering:auto;image-rendering:auto;shape-rendering:auto;text-rendering:auto;enable-background:accumulate" />
    </g>
  </g>
</svg>
